<?xml version='1.0' encoding='utf-8'?>
<svg xmlns="http://www.w3.org/2000/svg" width="300mm" height="300mm" version="1.1" viewBox="0 0 300 300"> <defs> <linearGradient id="a" x1="150" x2="149.24" y1="-3" y2="257.05" gradientUnits="userSpaceOnUse"> <stop stop-color="#00b7ff" offset="0"/> <stop stop-color="#0ff" stop-opacity="0" offset="1"/> </linearGradient> </defs> <g transform="translate(0,3)"> <rect x="-8.8818e-16" y="-3" width="300" height="210.15" fill="#fff"/> <rect y="-3" width="300" height="210.15" fill="url(#a)"/> <rect y="231.23" width="238.12" height="65.768" fill-opacity="0"/> <rect x="-7.1054e-15" y="207.15" width="300" height="89.845" fill="#afe9c6"/> <path d="m0 178.29v81.968h299.44v-78.817c-18.706 5.3705-39.039 12.242-56.952 13.375-29.523 1.8677-52.466-11.859-78.254-13.462-25.788-1.6036-54.421 8.9153-85.456 8.5623-26.739-0.30417-55.147-8.6369-78.78-11.626z" fill="#87deaa"/> <path transform="translate(2.3584e-7 -4.1892e-6)" d="m28.629 192.7c13.929 3.7859 34.438 6.082 56.173 8.2424 21.735 2.1604 44.696 4.1853 61.033 5.1977 16.337 1.0124 26.049 1.0124 20.366-0.98211-5.6824-1.9945-26.759-5.9836-37.239-9.5251-10.48-3.5414-10.363-6.6346-10.246-9.728-3.5885 0.70156-7.1766 1.403-13.91 2.2501s-16.612 1.8396-25.419 1.9419-16.541-0.68574-27.988-2.5466c-11.446-1.8609-24.099-4.3096-34.803-6.3026-10.704-1.9929-13.385-2.3989-11.316-4e-3 2.0689 2.3949 9.4183 7.6704 23.348 11.456z" fill="#aff3c6"/> <path d="m61.799 13.13a32.893 3.0416 0 0 0-31.338 2.1209 30.48 3.8696 0 0 0-20.679 3.6589 30.48 3.8696 0 0 0 7.8083 2.5795 32.701 4.3963 0 0 0-0.0026 0.0065 32.701 4.3963 0 0 0 2.4634 1.6658 26.115 1.8531 0 0 0-10.269 1.4711 26.115 1.8531 0 0 0 18.948 1.7805 33.771 3.6299 0 0 0 33.64 3.3317 33.771 3.6299 0 0 0 33.772-3.6299 33.771 3.6299 0 0 0-8.0026-2.342 30.833 3.7744 0 0 0 23.838-3.6711 30.833 3.7744 0 0 0-1.0992-0.99651 35.831 1.506 0 0 0 22.582-1.398 35.831 1.506 0 0 0-35.831-1.5058 35.831 1.506 0 0 0-2.9569 0.0058 32.893 3.0416 0 0 0 0.0191-0.03549 32.893 3.0416 0 0 0-32.893-3.0417z" fill="#e5fcf7" opacity=".596"/> <path d="m218.12 125.16a55.897 7.7667 0 0 0-55.897 7.7669 55.897 7.7667 0 0 0 0.46888 0.92574 80.423 3.3534 0 0 0-23.8 1.8742 77.16 4.0437 0 0 0-43.888 3.6439 77.16 4.0437 0 0 0 21.433 2.7949 63.196 2.654 0 0 0-7.4686 1.2488 63.196 2.654 0 0 0 63.196 2.654 63.196 2.654 0 0 0 63.196-2.654 63.196 2.654 0 0 0-7.5186-1.251 77.16 4.0437 0 0 0 21.483-2.7927 77.16 4.0437 0 0 0-2e-3 -4e-3 80.423 3.3534 0 0 0 49.222-3.087 80.423 3.3534 0 0 0-24.974-2.4235 55.897 7.7667 0 0 0 0.44729-0.9297 55.897 7.7667 0 0 0-55.897-7.7669z" fill="#e5fcf7" opacity=".675"/> <path transform="matrix(.26458 0 0 .26458 0 -3)" d="m823.27 803.55c-2.1843-0.01396-4.3866-0.01336-6.6074 0.00195-19.898 0.13715-41.279 1.4717-64.48 4.418-106.07 13.468-250.18 60.61-359.61 60.947-109.43 0.33689-184.19-46.132-284.86-50.846-33.629-1.5746-70.159 1.5259-107.7 7.7188v46.291 74.107 57.141h1133.9v-18.01-113.24-1.6914c-0.9979-0.81521-2.0465-1.6178-3.1953-2.3984-23.494-15.965-79.939-24.523-142.17-38.904-47.098-10.884-97.513-25.104-165.23-25.537z" fill="#008080"/> <g fill="#f6ffd5"> <circle cx="150" cy="70.161" r="33"/> <circle cx="150" cy="70.161" r="45" opacity=".347"/> </g> <circle cx="150" cy="70.161" r="55" fill="#f6ffd5" opacity=".268"/> <path transform="matrix(1 0 0 -1 104.89 417.84)" d="m27.882 193.64c14.07 2.3069 33.235 6.7387 48.562 9.8904 15.327 3.1517 26.815 5.0231 42.202 4.2628 15.387-0.76033 34.672-4.1523 35.275-6.6927 0.60319-2.5403-17.476-4.229-26.457-6.6202-8.9812-2.3912-8.8642-5.4844-8.7473-8.5778-3.5885 0.70156-7.1766 1.403-13.91 2.2501s-16.612 1.8396-25.419 1.9419-16.541-0.68574-27.163-3.0812c-10.622-2.3954-21.898-5.7363-33.406-5.2801-11.507 0.45622-16.713 4.4504-15.346 6.9344s10.339 2.6656 24.409 4.9725z" fill="#007180"/> <path transform="matrix(.26458 0 0 .26458 0 -3)" d="m229.29 936.71a410.71 117.14 0 0 0-229.29 20.074v177.07h433.58 95.312 604.97v-160.43a449.52 158.59 0 0 0-260.08-29.482 449.52 158.59 0 0 0-307.27 43.107 410.71 117.14 0 0 0-337.22-50.342z" fill="#006363"/> <path transform="matrix(-.83859 0 0 -1 143.97 452.66)" d="m17.299 200.28c11.632 2.3208 20.569 3.5984 36.363 5.117s38.44 3.278 59.406 2.4616c20.966-0.81638 40.251-4.2084 40.854-6.7487 0.60319-2.5403-17.476-4.229-26.457-6.6202-8.9812-2.3912-8.8642-5.4844-8.7473-8.5778-3.5885 0.70156-7.1766 1.403-13.91 2.2501s-16.612 1.8396-25.419 1.9419-16.541-0.68574-24.459 0.55683-14.68 3.9744-29.848 4.4797c-15.168 0.50534-30.13-1.5022-31.932-1.0232-1.8028 0.47897 12.519 3.842 24.151 6.1628z" fill="#005563"/> <path d="m78.438 91.623a35.612 7.7667 0 0 0-35.612 7.7669 35.612 7.7667 0 0 0 0.29873 0.92574 51.238 3.3534 0 0 0-15.163 1.8742 49.159 4.0437 0 0 0-27.962 3.6439 49.159 4.0437 0 0 0 13.655 2.7949 40.262 2.654 0 0 0-4.7583 1.2488 40.262 2.654 0 0 0 40.262 2.654 40.262 2.654 0 0 0 40.262-2.654 40.262 2.654 0 0 0-4.7901-1.251 49.159 4.0437 0 0 0 13.687-2.7927 49.159 4.0437 0 0 0-9.52e-4 -4e-3 51.238 3.3534 0 0 0 31.36-3.087 51.238 3.3534 0 0 0-15.911-2.4235 35.612 7.7667 0 0 0 0.28496-0.9297 35.612 7.7667 0 0 0-35.612-7.7669z" fill="#e5fcf7" opacity=".675"/> <path d="m146.69 39.676a69.603 7.7667 0 0 1 69.603 7.7669 69.603 7.7667 0 0 1-0.58386 0.92574 100.14 3.3534 0 0 1 29.636 1.8742 96.08 4.0437 0 0 1 54.65 3.6439 96.08 4.0437 0 0 1-26.688 2.7949 78.692 2.654 0 0 1 9.3 1.2488 78.692 2.654 0 0 1-78.692 2.654 78.692 2.654 0 0 1-78.692-2.654 78.692 2.654 0 0 1 9.3622-1.251 96.08 4.0437 0 0 1-26.75-2.7927 96.08 4.0437 0 0 1 2e-3 -4e-3 100.14 3.3534 0 0 1-61.292-3.087 100.14 3.3534 0 0 1 31.097-2.4235 69.603 7.7667 0 0 1-0.55695-0.9297 69.603 7.7667 0 0 1 69.603-7.7669z" fill="#bef0ff"/> </g> </svg>